<?xml version="1.0" encoding="UTF-8" standalone="no"?>
<!DOCTYPE svg PUBLIC "-//W3C//DTD SVG 1.1//EN"
 "http://www.w3.org/Graphics/SVG/1.1/DTD/svg11.dtd">
<!-- Generated by graphviz version 12.1.1 (20240910.0053)
 -->
<!-- Title: INFRA Pages: 1 -->
<svg width="1634pt" height="296pt"
 viewBox="0.00 0.00 1634.41 296.00" xmlns="http://www.w3.org/2000/svg" xmlns:xlink="http://www.w3.org/1999/xlink">
<g id="graph0" class="graph" transform="scale(1 1) rotate(0) translate(4 292)">
<title>INFRA</title>
<polygon fill="white" stroke="none" points="-4,4 -4,-292 1630.41,-292 1630.41,4 -4,4"/>
<!-- view&#45;analytics&#45;vpc -->
<g id="node1" class="node">
<title>view&#45;analytics&#45;vpc</title>
<path fill="#e6e6e6" stroke="black" stroke-width="2" d="M487.78,-72C487.78,-72 382.2,-72 382.2,-72 376.2,-72 370.2,-66 370.2,-60 370.2,-60 370.2,-12 370.2,-12 370.2,-6 376.2,0 382.2,0 382.2,0 487.78,0 487.78,0 493.78,0 499.78,-6 499.78,-12 499.78,-12 499.78,-60 499.78,-60 499.78,-66 493.78,-72 487.78,-72"/>
<text text-anchor="middle" x="434.99" y="-40.2" font-family="Arial" font-size="14.00">view&#45;analytics&#45;vpc</text>
<text text-anchor="middle" x="434.99" y="-23.4" font-family="Arial" font-size="14.00">(AWS::EC2::VPC)</text>
</g>
<!-- view&#45;analytics&#45;security&#45;group -->
<g id="node2" class="node">
<title>view&#45;analytics&#45;security&#45;group</title>
<path fill="#e6e6e6" stroke="black" stroke-width="2" d="M185.24,-180C185.24,-180 12.74,-180 12.74,-180 6.74,-180 0.74,-174 0.74,-168 0.74,-168 0.74,-120 0.74,-120 0.74,-114 6.74,-108 12.74,-108 12.74,-108 185.24,-108 185.24,-108 191.24,-108 197.24,-114 197.24,-120 197.24,-120 197.24,-168 197.24,-168 197.24,-174 191.24,-180 185.24,-180"/>
<text text-anchor="middle" x="98.99" y="-148.2" font-family="Arial" font-size="14.00">view&#45;analytics&#45;security&#45;group</text>
<text text-anchor="middle" x="98.99" y="-131.4" font-family="Arial" font-size="14.00">(AWS::EC2::SecurityGroup)</text>
</g>
<!-- view&#45;analytics&#45;security&#45;group&#45;&gt;view&#45;analytics&#45;vpc -->
<g id="edge1" class="edge">
<title>view&#45;analytics&#45;security&#45;group&#45;&gt;view&#45;analytics&#45;vpc</title>
<path fill="none" stroke="black" d="M197.5,-110.71C200.36,-109.8 203.2,-108.89 205.99,-108 256.92,-91.78 314.37,-73.96 358.99,-60.24"/>
<polygon fill="black" stroke="black" points="359.78,-63.66 368.31,-57.38 357.72,-56.97 359.78,-63.66"/>
</g>
<!-- view&#45;analytics&#45;public&#45;subnet -->
<g id="node3" class="node">
<title>view&#45;analytics&#45;public&#45;subnet</title>
<path fill="#e6e6e6" stroke="black" stroke-width="2" d="M394.53,-180C394.53,-180 227.45,-180 227.45,-180 221.45,-180 215.45,-174 215.45,-168 215.45,-168 215.45,-120 215.45,-120 215.45,-114 221.45,-108 227.45,-108 227.45,-108 394.53,-108 394.53,-108 400.53,-108 406.53,-114 406.53,-120 406.53,-120 406.53,-168 406.53,-168 406.53,-174 400.53,-180 394.53,-180"/>
<text text-anchor="middle" x="310.99" y="-148.2" font-family="Arial" font-size="14.00">view&#45;analytics&#45;public&#45;subnet</text>
<text text-anchor="middle" x="310.99" y="-131.4" font-family="Arial" font-size="14.00">(AWS::EC2::Subnet)</text>
</g>
<!-- view&#45;analytics&#45;public&#45;subnet&#45;&gt;view&#45;analytics&#45;vpc -->
<g id="edge2" class="edge">
<title>view&#45;analytics&#45;public&#45;subnet&#45;&gt;view&#45;analytics&#45;vpc</title>
<path fill="none" stroke="black" d="M352.28,-107.7C362.84,-98.67 374.31,-88.87 385.25,-79.52"/>
<polygon fill="black" stroke="black" points="387.4,-82.28 392.73,-73.13 382.85,-76.96 387.4,-82.28"/>
</g>
<!-- view&#45;analytics&#45;private&#45;subnet -->
<g id="node4" class="node">
<title>view&#45;analytics&#45;private&#45;subnet</title>
<path fill="#e6e6e6" stroke="black" stroke-width="2" d="M685.25,-180C685.25,-180 512.73,-180 512.73,-180 506.73,-180 500.73,-174 500.73,-168 500.73,-168 500.73,-120 500.73,-120 500.73,-114 506.73,-108 512.73,-108 512.73,-108 685.25,-108 685.25,-108 691.25,-108 697.25,-114 697.25,-120 697.25,-120 697.25,-168 697.25,-168 697.25,-174 691.25,-180 685.25,-180"/>
<text text-anchor="middle" x="598.99" y="-148.2" font-family="Arial" font-size="14.00">view&#45;analytics&#45;private&#45;subnet</text>
<text text-anchor="middle" x="598.99" y="-131.4" font-family="Arial" font-size="14.00">(AWS::EC2::Subnet)</text>
</g>
<!-- view&#45;analytics&#45;private&#45;subnet&#45;&gt;view&#45;analytics&#45;vpc -->
<g id="edge3" class="edge">
<title>view&#45;analytics&#45;private&#45;subnet&#45;&gt;view&#45;analytics&#45;vpc</title>
<path fill="none" stroke="black" d="M544.38,-107.7C529.93,-98.37 514.21,-88.2 499.3,-78.56"/>
<polygon fill="black" stroke="black" points="501.21,-75.63 490.91,-73.14 497.41,-81.51 501.21,-75.63"/>
</g>
<!-- view&#45;analytics&#45;public&#45;route&#45;table -->
<g id="node5" class="node">
<title>view&#45;analytics&#45;public&#45;route&#45;table</title>
<path fill="#e6e6e6" stroke="black" stroke-width="2" d="M449.98,-288C449.98,-288 258,-288 258,-288 252,-288 246,-282 246,-276 246,-276 246,-228 246,-228 246,-222 252,-216 258,-216 258,-216 449.98,-216 449.98,-216 455.98,-216 461.98,-222 461.98,-228 461.98,-228 461.98,-276 461.98,-276 461.98,-282 455.98,-288 449.98,-288"/>
<text text-anchor="middle" x="353.99" y="-256.2" font-family="Arial" font-size="14.00">view&#45;analytics&#45;public&#45;route&#45;table</text>
<text text-anchor="middle" x="353.99" y="-239.4" font-family="Arial" font-size="14.00">(AWS::EC2::RouteTable)</text>
</g>
<!-- view&#45;analytics&#45;public&#45;route&#45;table&#45;&gt;view&#45;analytics&#45;vpc -->
<g id="edge4" class="edge">
<title>view&#45;analytics&#45;public&#45;route&#45;table&#45;&gt;view&#45;analytics&#45;vpc</title>
<path fill="none" stroke="black" d="M392.02,-215.62C401.29,-205.04 410.19,-192.82 415.99,-180 429.65,-149.82 434.26,-112.65 435.54,-83.77"/>
<polygon fill="black" stroke="black" points="439.03,-83.96 435.84,-73.86 432.03,-83.75 439.03,-83.96"/>
</g>
<!-- view&#45;analytics&#45;public&#45;route&#45;table&#45;&gt;view&#45;analytics&#45;public&#45;subnet -->
<g id="edge5" class="edge">
<title>view&#45;analytics&#45;public&#45;route&#45;table&#45;&gt;view&#45;analytics&#45;public&#45;subnet</title>
<path fill="none" stroke="black" d="M339.67,-215.7C336.41,-207.66 332.89,-199 329.48,-190.59"/>
<polygon fill="black" stroke="black" points="332.82,-189.5 325.81,-181.54 326.33,-192.13 332.82,-189.5"/>
</g>
<!-- view&#45;analytics&#45;private&#45;route&#45;table -->
<g id="node6" class="node">
<title>view&#45;analytics&#45;private&#45;route&#45;table</title>
<path fill="#e6e6e6" stroke="black" stroke-width="2" d="M695.7,-288C695.7,-288 498.28,-288 498.28,-288 492.28,-288 486.28,-282 486.28,-276 486.28,-276 486.28,-228 486.28,-228 486.28,-222 492.28,-216 498.28,-216 498.28,-216 695.7,-216 695.7,-216 701.7,-216 707.7,-222 707.7,-228 707.7,-228 707.7,-276 707.7,-276 707.7,-282 701.7,-288 695.7,-288"/>
<text text-anchor="middle" x="596.99" y="-256.2" font-family="Arial" font-size="14.00">view&#45;analytics&#45;private&#45;route&#45;table</text>
<text text-anchor="middle" x="596.99" y="-239.4" font-family="Arial" font-size="14.00">(AWS::EC2::RouteTable)</text>
</g>
<!-- view&#45;analytics&#45;private&#45;route&#45;table&#45;&gt;view&#45;analytics&#45;vpc -->
<g id="edge6" class="edge">
<title>view&#45;analytics&#45;private&#45;route&#45;table&#45;&gt;view&#45;analytics&#45;vpc</title>
<path fill="none" stroke="black" d="M531.45,-215.53C517.06,-205.49 502.89,-193.54 491.99,-180 469.25,-151.76 454.61,-113.29 445.86,-83.36"/>
<polygon fill="black" stroke="black" points="449.26,-82.5 443.2,-73.81 442.51,-84.38 449.26,-82.5"/>
</g>
<!-- view&#45;analytics&#45;private&#45;route&#45;table&#45;&gt;view&#45;analytics&#45;private&#45;subnet -->
<g id="edge7" class="edge">
<title>view&#45;analytics&#45;private&#45;route&#45;table&#45;&gt;view&#45;analytics&#45;private&#45;subnet</title>
<path fill="none" stroke="black" d="M597.66,-215.7C597.8,-207.93 597.96,-199.57 598.11,-191.43"/>
<polygon fill="black" stroke="black" points="601.61,-191.72 598.3,-181.66 594.61,-191.59 601.61,-191.72"/>
</g>
<!-- view&#45;analytics&#45;frontend&#45;instance -->
<g id="node7" class="node">
<title>view&#45;analytics&#45;frontend&#45;instance</title>
<path fill="#b7e0ff" stroke="black" stroke-width="2" d="M203.98,-288C203.98,-288 12,-288 12,-288 6,-288 0,-282 0,-276 0,-276 0,-228 0,-228 0,-222 6,-216 12,-216 12,-216 203.98,-216 203.98,-216 209.98,-216 215.98,-222 215.98,-228 215.98,-228 215.98,-276 215.98,-276 215.98,-282 209.98,-288 203.98,-288"/>
<text text-anchor="middle" x="107.99" y="-256.2" font-family="Arial" font-size="14.00">view&#45;analytics&#45;frontend&#45;instance</text>
<text text-anchor="middle" x="107.99" y="-239.4" font-family="Arial" font-size="14.00">(AWS::EC2::Instance)</text>
</g>
<!-- view&#45;analytics&#45;frontend&#45;instance&#45;&gt;view&#45;analytics&#45;security&#45;group -->
<g id="edge9" class="edge">
<title>view&#45;analytics&#45;frontend&#45;instance&#45;&gt;view&#45;analytics&#45;security&#45;group</title>
<path fill="none" stroke="black" d="M104.99,-215.7C104.33,-207.93 103.62,-199.57 102.93,-191.43"/>
<polygon fill="black" stroke="black" points="106.43,-191.32 102.1,-181.65 99.46,-191.91 106.43,-191.32"/>
</g>
<!-- view&#45;analytics&#45;frontend&#45;instance&#45;&gt;view&#45;analytics&#45;public&#45;subnet -->
<g id="edge8" class="edge">
<title>view&#45;analytics&#45;frontend&#45;instance&#45;&gt;view&#45;analytics&#45;public&#45;subnet</title>
<path fill="none" stroke="black" d="M175.87,-215.56C194.24,-205.97 214.26,-195.51 233.13,-185.66"/>
<polygon fill="black" stroke="black" points="234.59,-188.84 241.83,-181.11 231.35,-182.64 234.59,-188.84"/>
</g>
<!-- viewanalyticstransformfunctioncode -->
<g id="node8" class="node">
<title>viewanalyticstransformfunctioncode</title>
<path fill="#fff5cd" stroke="black" stroke-width="2" d="M955.49,-173.45C955.49,-177.07 902.37,-180 836.99,-180 771.61,-180 718.49,-177.07 718.49,-173.45 718.49,-173.45 718.49,-114.55 718.49,-114.55 718.49,-110.93 771.61,-108 836.99,-108 902.37,-108 955.49,-110.93 955.49,-114.55 955.49,-114.55 955.49,-173.45 955.49,-173.45"/>
<path fill="none" stroke="black" stroke-width="2" d="M955.49,-173.45C955.49,-169.84 902.37,-166.91 836.99,-166.91 771.61,-166.91 718.49,-169.84 718.49,-173.45"/>
<text text-anchor="middle" x="836.99" y="-148.2" font-family="Arial" font-size="14.00">viewanalyticstransformfunctioncode</text>
<text text-anchor="middle" x="836.99" y="-131.4" font-family="Arial" font-size="14.00">(AWS::S3::Bucket)</text>
</g>
<!-- view&#45;analytics&#45;transform&#45;function -->
<g id="node9" class="node">
<title>view&#45;analytics&#45;transform&#45;function</title>
<path fill="#b7e0ff" stroke="black" stroke-width="2" d="M937.3,-288C937.3,-288 740.68,-288 740.68,-288 734.68,-288 728.68,-282 728.68,-276 728.68,-276 728.68,-228 728.68,-228 728.68,-222 734.68,-216 740.68,-216 740.68,-216 937.3,-216 937.3,-216 943.3,-216 949.3,-222 949.3,-228 949.3,-228 949.3,-276 949.3,-276 949.3,-282 943.3,-288 937.3,-288"/>
<text text-anchor="middle" x="838.99" y="-256.2" font-family="Arial" font-size="14.00">view&#45;analytics&#45;transform&#45;function</text>
<text text-anchor="middle" x="838.99" y="-239.4" font-family="Arial" font-size="14.00">(AWS::Lambda::Function)</text>
</g>
<!-- view&#45;analytics&#45;transform&#45;function&#45;&gt;viewanalyticstransformfunctioncode -->
<g id="edge10" class="edge">
<title>view&#45;analytics&#45;transform&#45;function&#45;&gt;viewanalyticstransformfunctioncode</title>
<path fill="none" stroke="black" d="M838.32,-215.7C838.18,-207.93 838.02,-199.57 837.87,-191.43"/>
<polygon fill="black" stroke="black" points="841.37,-191.59 837.68,-181.66 834.37,-191.72 841.37,-191.59"/>
</g>
<!-- view&#45;analytics&#45;lambda&#45;function&#45;iam&#45;role -->
<g id="node12" class="node">
<title>view&#45;analytics&#45;lambda&#45;function&#45;iam&#45;role</title>
<path fill="#e6e6e6" stroke="black" stroke-width="2" d="M1224.31,-180C1224.31,-180 985.67,-180 985.67,-180 979.67,-180 973.67,-174 973.67,-168 973.67,-168 973.67,-120 973.67,-120 973.67,-114 979.67,-108 985.67,-108 985.67,-108 1224.31,-108 1224.31,-108 1230.31,-108 1236.31,-114 1236.31,-120 1236.31,-120 1236.31,-168 1236.31,-168 1236.31,-174 1230.31,-180 1224.31,-180"/>
<text text-anchor="middle" x="1104.99" y="-148.2" font-family="Arial" font-size="14.00">view&#45;analytics&#45;lambda&#45;function&#45;iam&#45;role</text>
<text text-anchor="middle" x="1104.99" y="-131.4" font-family="Arial" font-size="14.00">(AWS::IAM::Role)</text>
</g>
<!-- view&#45;analytics&#45;transform&#45;function&#45;&gt;view&#45;analytics&#45;lambda&#45;function&#45;iam&#45;role -->
<g id="edge11" class="edge">
<title>view&#45;analytics&#45;transform&#45;function&#45;&gt;view&#45;analytics&#45;lambda&#45;function&#45;iam&#45;role</title>
<path fill="none" stroke="black" d="M927.93,-215.56C952.89,-205.61 980.18,-194.74 1005.69,-184.57"/>
<polygon fill="black" stroke="black" points="1006.73,-187.92 1014.72,-180.97 1004.14,-181.42 1006.73,-187.92"/>
</g>
<!-- view&#45;analytics&#45;stream -->
<g id="node10" class="node">
<title>view&#45;analytics&#45;stream</title>
<path fill="#cce0ac" stroke="black" stroke-width="2" d="M1118.5,-288C1118.5,-288 979.48,-288 979.48,-288 973.48,-288 967.48,-282 967.48,-276 967.48,-276 967.48,-228 967.48,-228 967.48,-222 973.48,-216 979.48,-216 979.48,-216 1118.5,-216 1118.5,-216 1124.5,-216 1130.5,-222 1130.5,-228 1130.5,-228 1130.5,-276 1130.5,-276 1130.5,-282 1124.5,-288 1118.5,-288"/>
<text text-anchor="middle" x="1048.99" y="-256.2" font-family="Arial" font-size="14.00">view&#45;analytics&#45;stream</text>
<text text-anchor="middle" x="1048.99" y="-239.4" font-family="Arial" font-size="14.00">(AWS::Kinesis::Stream)</text>
</g>
<!-- opensearchdestination -->
<g id="node11" class="node">
<title>opensearchdestination</title>
<path fill="#ffcfb3" stroke="black" stroke-width="2" d="M1395.14,-281.45C1395.14,-285.07 1339.94,-288 1271.99,-288 1204.04,-288 1148.84,-285.07 1148.84,-281.45 1148.84,-281.45 1148.84,-222.55 1148.84,-222.55 1148.84,-218.93 1204.04,-216 1271.99,-216 1339.94,-216 1395.14,-218.93 1395.14,-222.55 1395.14,-222.55 1395.14,-281.45 1395.14,-281.45"/>
<path fill="none" stroke="black" stroke-width="2" d="M1395.14,-281.45C1395.14,-277.84 1339.94,-274.91 1271.99,-274.91 1204.04,-274.91 1148.84,-277.84 1148.84,-281.45"/>
<text text-anchor="middle" x="1271.99" y="-256.2" font-family="Arial" font-size="14.00">opensearchdestination</text>
<text text-anchor="middle" x="1271.99" y="-239.4" font-family="Arial" font-size="14.00">(AWS::OpenSearchService::Domain)</text>
</g>
<!-- view&#45;analytics&#45;firehose&#45;iam&#45;role -->
<g id="node13" class="node">
<title>view&#45;analytics&#45;firehose&#45;iam&#45;role</title>
<path fill="#e6e6e6" stroke="black" stroke-width="2" d="M1614.41,-288C1614.41,-288 1425.57,-288 1425.57,-288 1419.57,-288 1413.57,-282 1413.57,-276 1413.57,-276 1413.57,-228 1413.57,-228 1413.57,-222 1419.57,-216 1425.57,-216 1425.57,-216 1614.41,-216 1614.41,-216 1620.41,-216 1626.41,-222 1626.41,-228 1626.41,-228 1626.41,-276 1626.41,-276 1626.41,-282 1620.41,-288 1614.41,-288"/>
<text text-anchor="middle" x="1519.99" y="-256.2" font-family="Arial" font-size="14.00">view&#45;analytics&#45;firehose&#45;iam&#45;role</text>
<text text-anchor="middle" x="1519.99" y="-239.4" font-family="Arial" font-size="14.00">(AWS::IAM::Role)</text>
</g>
</g>
</svg>
